<svg xmlns="http://www.w3.org/2000/svg" viewBox="0 0 189.9 239"><defs><style>.cls-1{isolation:isolate;}.cls-2{fill:#dedc68;}</style></defs><title>Logo_Geel</title><g id="Layer_2" data-name="Layer 2"><g id="Layer_1-2" data-name="Layer 1"><g id="Laag_2" data-name="Laag 2"><g id="Laag_1-2" data-name="Laag 1-2"><g class="cls-1"><path class="cls-2" d="M163.78,73.48q-12.5,11.05-59.61,43.36Q64.44,144,41.44,168.43q-8.8,9.63-10.5,30.33Q30.66,201,30.09,239q-.29-2.55-6.81-36.9-4.55-23.57-4.55-28.39,0-2,6.82-6,8.22-4.53,12.2-10.78,6.53-9.93,6.53-26.4,0-12.78-2-44-2.84-42-6.81-64.71Q8.8,27.53,8.8,50.81a133.71,133.71,0,0,0,1.84,17.6,134.35,134.35,0,0,1,1.85,17.88,38.52,38.52,0,0,1-1.14,9.93q0-4.53-3.69-18.73T4,60.18L0,19.59Q27.53,13.35,76.92,6.24,120.63,0,128.87,0a38.29,38.29,0,0,1,17.31,4Q144.76,13.06,124,27.25,92.81,48.54,92.25,48.82a74.17,74.17,0,0,0,12.49.85h19.87q27.24,0,39.17,9.64Q164.91,69.51,163.78,73.48ZM117.8,17a196.07,196.07,0,0,0-27.25-2,148.3,148.3,0,0,0-40.88,5.43L48.25,57.34q17-5.72,38.32-19.43Q102.19,27.62,117.8,17Zm28.1,44a149,149,0,0,1-17.74-1.85q-12.93-1.84-16.89-1.84a139.92,139.92,0,0,0-29.81,3.4Q60.75,65.29,51.38,74.08v65.86l56.2-35.2Q144.48,79.19,145.9,61Z"/></g><g class="cls-1"><path class="cls-2" d="M189.89,168.69q-.19,6.26-10.14,15.91-11.69,11.07-24.19,11.08a27.66,27.66,0,0,1-6.79-.86A50.39,50.39,0,0,0,140,194q-13.64,0-20.52,11.93-2.39,3.69-12.32,31.81l2-66.74q7.19,6.24,21.28,10.22a81.67,81.67,0,0,0,20.35,3.12q14.49,0,28.11-9.08,1.4-18.18-8.41-22.73Q168,151.38,146.14,150q-19-1.42-31.48-11.08-.19-3.12-.1-6,.47-15.61,14.62-23.58,7.23-4.26,29.55-9.65Q177.9,94.85,184,88.88q-3.72,10.52-11.34,37.21-4.39-14.49-16-14.48a42,42,0,0,0-18.45,4.54q-9.37,4.55-14.13,11.64,8.45,12.22,26.8,15.63L178,148Q190.37,152.51,189.89,168.69Z"/></g></g></g></g></g></svg>